<svg width="663" height="492" viewBox="0 0 663 492" fill="none" xmlns="http://www.w3.org/2000/svg">
<path d="M5 143.5C5 142.119 3.88071 141 2.5 141C1.11929 141 0 142.119 0 143.5H5ZM0 233.5C0 234.881 1.11929 236 2.5 236C3.88071 236 5 234.881 5 233.5H0ZM36 116.5C36 115.119 34.8807 114 33.5 114C32.1193 114 31 115.119 31 116.5H36ZM33.5 235.5H31C31 236.163 31.2634 236.799 31.7322 237.268L33.5 235.5ZM78.5 280.5L76.7322 282.268C77.2011 282.737 77.837 283 78.5 283V280.5ZM102.5 283C103.881 283 105 281.881 105 280.5C105 279.119 103.881 278 102.5 278V283ZM65.7328 91.7317C64.7562 92.7077 64.7557 94.2906 65.7317 95.2672C66.7077 96.2438 68.2906 96.2443 69.2672 95.2683L65.7328 91.7317ZM95.1351 65.8812V63.3812H94.1L93.3678 64.1129L95.1351 65.8812ZM143 65.8812V68.3812H144.033L144.765 67.6518L143 65.8812ZM182.265 30.2706C183.243 29.2958 183.245 27.7129 182.271 26.735C181.296 25.7572 179.713 25.7547 178.735 26.7294L182.265 30.2706ZM89.7322 246.268C90.7085 247.244 92.2915 247.244 93.2678 246.268C94.2441 245.291 94.2441 243.709 93.2678 242.732L89.7322 246.268ZM67.5 220.5H65V221.536L65.7322 222.268L67.5 220.5ZM67.5 132.5L65.7322 130.732L65 131.464V132.5H67.5ZM105.388 94.6124V92.1124H104.352L103.62 92.8447L105.388 94.6124ZM159.388 94.6124V97.1124H160.423L161.155 96.3802L159.388 94.6124ZM227.268 30.2678C228.244 29.2915 228.244 27.7085 227.268 26.7322C226.291 25.7559 224.709 25.7559 223.732 26.7322L227.268 30.2678ZM125.268 120.268C126.244 119.291 126.244 117.709 125.268 116.732C124.291 115.756 122.709 115.756 121.732 116.732L125.268 120.268ZM105.5 136.5L103.732 134.732L103 135.464V136.5H105.5ZM105.5 216.5H103V217.536L103.732 218.268L105.5 216.5ZM141.732 256.268C142.709 257.244 144.291 257.244 145.268 256.268C146.244 255.291 146.244 253.709 145.268 252.732L141.732 256.268ZM146 133.5C146 132.119 144.881 131 143.5 131C142.119 131 141 132.119 141 133.5H146ZM141 216.5C141 217.881 142.119 219 143.5 219C144.881 219 146 217.881 146 216.5H141ZM179 255.5C179 256.881 180.119 258 181.5 258C182.881 258 184 256.881 184 255.5H179ZM181.5 133.5L179.732 131.732L179 132.464V133.5H181.5ZM266.5 48.5L268.268 50.2678L269 49.5355V48.5H266.5ZM269 6.5C269 5.11929 267.881 4 266.5 4C265.119 4 264 5.11929 264 6.5H269ZM219 254.5C219 255.881 220.119 257 221.5 257C222.881 257 224 255.881 224 254.5H219ZM221.5 146.5L219.732 144.732L219 145.464V146.5H221.5ZM301.5 66.5L303.268 68.2678L304 67.5355V66.5H301.5ZM304 3.5C304 2.11929 302.881 1 301.5 1C300.119 1 299 2.11929 299 3.5H304ZM252.732 173.732C251.756 174.709 251.756 176.291 252.732 177.268C253.709 178.244 255.291 178.244 256.268 177.268L252.732 173.732ZM305.268 128.268C306.244 127.291 306.244 125.709 305.268 124.732C304.291 123.756 302.709 123.756 301.732 124.732L305.268 128.268ZM138.5 277C137.119 277 136 278.119 136 279.5C136 280.881 137.119 282 138.5 282V277ZM279.5 279.5V282H280.536L281.268 281.268L279.5 279.5ZM337.268 225.268C338.244 224.291 338.244 222.709 337.268 221.732C336.291 220.756 334.709 220.756 333.732 221.732L337.268 225.268ZM254.732 234.732C253.756 235.709 253.756 237.291 254.732 238.268C255.709 239.244 257.291 239.244 258.268 238.268L254.732 234.732ZM335.5 157.5L337.268 159.268L338 158.536V157.5H335.5ZM338 3.5C338 2.11929 336.881 1 335.5 1C334.119 1 333 2.11929 333 3.5H338ZM160.5 308C159.119 308 158 309.119 158 310.5C158 311.881 159.119 313 160.5 313V308ZM319.5 310.5V313H320.536L321.268 312.268L319.5 310.5ZM369.5 260.5L371.268 262.268L372 261.536V260.5H369.5ZM372 171.5C372 170.119 370.881 169 369.5 169C368.119 169 367 170.119 367 171.5H372ZM190.268 339.732C189.291 338.756 187.709 338.756 186.732 339.732C185.756 340.709 185.756 342.291 186.732 343.268L190.268 339.732ZM221.5 374.5L219.732 376.268L220.464 377H221.5V374.5ZM315.5 377C316.881 377 318 375.881 318 374.5C318 373.119 316.881 372 315.5 372V377ZM223.5 338C222.119 338 221 339.119 221 340.5C221 341.881 222.119 343 223.5 343V338ZM318.5 340.5L320.268 338.732L319.536 338H318.5V340.5ZM367.732 393.268C368.709 394.244 370.291 394.244 371.268 393.268C372.244 392.291 372.244 390.709 371.268 389.732L367.732 393.268ZM582.5 343C583.881 343 585 341.881 585 340.5C585 339.119 583.881 338 582.5 338V343ZM470.5 340.5V338H469.464L468.732 338.732L470.5 340.5ZM417.732 389.732C416.756 390.709 416.756 392.291 417.732 393.268C418.709 394.244 420.291 394.244 421.268 393.268L417.732 389.732ZM620.5 313C621.881 313 623 311.881 623 310.5C623 309.119 621.881 308 620.5 308V313ZM468.5 310.5L466.732 312.268L467.464 313H468.5V310.5ZM418.5 260.5H416V261.536L416.732 262.268L418.5 260.5ZM418.5 170.5H421V169.464L420.268 168.732L418.5 170.5ZM370.5 122.5H368V123.536L368.732 124.268L370.5 122.5ZM370.5 50.5L368.732 48.7322L368 49.4645V50.5H370.5ZM420.268 4.26777C421.244 3.29146 421.244 1.70854 420.268 0.732233C419.291 -0.244078 417.709 -0.244078 416.732 0.732233L420.268 4.26777ZM500 30.5C500 29.1193 498.881 28 497.5 28C496.119 28 495 29.1193 495 30.5H500ZM497.5 123.5L499.268 125.268L500 124.536V123.5H497.5ZM452.5 168.5L450.732 166.732L450 167.464V168.5H452.5ZM452.5 243.5H450V244.536L450.732 245.268L452.5 243.5ZM484.5 275.5L482.732 277.268L483.464 278H484.5V275.5ZM638.5 278C639.881 278 641 276.881 641 275.5C641 274.119 639.881 273 638.5 273V278ZM399.268 90.7322C398.291 89.7559 396.709 89.7559 395.732 90.7322C394.756 91.7085 394.756 93.2915 395.732 94.2678L399.268 90.7322ZM422.732 121.268C423.709 122.244 425.291 122.244 426.268 121.268C427.244 120.291 427.244 118.709 426.268 117.732L422.732 121.268ZM412.268 49.7322C411.291 48.7559 409.709 48.7559 408.732 49.7322C407.756 50.7085 407.756 52.2915 408.732 53.2678L412.268 49.7322ZM454.5 95.5H457V94.4645L456.268 93.7322L454.5 95.5ZM452 122.5C452 123.881 453.119 125 454.5 125C455.881 125 457 123.881 457 122.5H452ZM460 14.5C460 13.1193 458.881 12 457.5 12C456.119 12 455 13.1193 455 14.5H460ZM455 57.5C455 58.8807 456.119 60 457.5 60C458.881 60 460 58.8807 460 57.5H455ZM538 47.5C538 46.1193 536.881 45 535.5 45C534.119 45 533 46.1193 533 47.5H538ZM535.5 143.5L537.268 145.268L538 144.536V143.5H535.5ZM482.732 192.732C481.756 193.709 481.756 195.291 482.732 196.268C483.709 197.244 485.291 197.244 486.268 196.268L482.732 192.732ZM577 66.5C577 65.1193 575.881 64 574.5 64C573.119 64 572 65.1193 572 66.5H577ZM574.5 161.5H572V162.536L572.732 163.268L574.5 161.5ZM597.732 188.268C598.709 189.244 600.291 189.244 601.268 188.268C602.244 187.291 602.244 185.709 601.268 184.732L597.732 188.268ZM505.5 203C504.119 203 503 204.119 503 205.5C503 206.881 504.119 208 505.5 208V203ZM660.5 205.5V208H663V205.5H660.5ZM660.5 155.5H663V154.464L662.268 153.732L660.5 155.5ZM604.268 95.7322C603.291 94.7559 601.709 94.7559 600.732 95.7322C599.756 96.7085 599.756 98.2915 600.732 99.2678L604.268 95.7322ZM604.268 140.732C603.291 139.756 601.709 139.756 600.732 140.732C599.756 141.709 599.756 143.291 600.732 144.268L604.268 140.732ZM628.732 172.268C629.709 173.244 631.291 173.244 632.268 172.268C633.244 171.291 633.244 169.709 632.268 168.732L628.732 172.268ZM486.268 220.732C485.291 219.756 483.709 219.756 482.732 220.732C481.756 221.709 481.756 223.291 482.732 224.268L486.268 220.732ZM502.5 240.5L500.732 242.268L501.464 243H502.5V240.5ZM651.5 243C652.881 243 654 241.881 654 240.5C654 239.119 652.881 238 651.5 238V243ZM0 143.5V233.5H5V143.5H0ZM31 116.5V235.5H36V116.5H31ZM31.7322 237.268L76.7322 282.268L80.2678 278.732L35.2678 233.732L31.7322 237.268ZM78.5 283H102.5V278H78.5V283ZM69.2672 95.2683L96.9023 67.6495L93.3678 64.1129L65.7328 91.7317L69.2672 95.2683ZM95.1351 68.3812H143V63.3812H95.1351V68.3812ZM144.765 67.6518L182.265 30.2706L178.735 26.7294L141.235 64.1107L144.765 67.6518ZM93.2678 242.732L69.2678 218.732L65.7322 222.268L89.7322 246.268L93.2678 242.732ZM70 220.5V132.5H65V220.5H70ZM69.2678 134.268L107.155 96.3802L103.62 92.8447L65.7322 130.732L69.2678 134.268ZM105.388 97.1124H159.388V92.1124H105.388V97.1124ZM161.155 96.3802L227.268 30.2678L223.732 26.7322L157.62 92.8447L161.155 96.3802ZM121.732 116.732L103.732 134.732L107.268 138.268L125.268 120.268L121.732 116.732ZM103 136.5V216.5H108V136.5H103ZM103.732 218.268L141.732 256.268L145.268 252.732L107.268 214.732L103.732 218.268ZM141 133.5V216.5H146V133.5H141ZM184 255.5V133.5H179V255.5H184ZM183.268 135.268L268.268 50.2678L264.732 46.7322L179.732 131.732L183.268 135.268ZM269 48.5V6.5H264V48.5H269ZM224 254.5V146.5H219V254.5H224ZM223.268 148.268L303.268 68.2678L299.732 64.7322L219.732 144.732L223.268 148.268ZM304 66.5V3.5H299V66.5H304ZM256.268 177.268L305.268 128.268L301.732 124.732L252.732 173.732L256.268 177.268ZM138.5 282H279.5V277H138.5V282ZM281.268 281.268L337.268 225.268L333.732 221.732L277.732 277.732L281.268 281.268ZM258.268 238.268L337.268 159.268L333.732 155.732L254.732 234.732L258.268 238.268ZM338 157.5V3.5H333V157.5H338ZM160.5 313H319.5V308H160.5V313ZM321.268 312.268L371.268 262.268L367.732 258.732L317.732 308.732L321.268 312.268ZM372 260.5V171.5H367V260.5H372ZM186.732 343.268L219.732 376.268L223.268 372.732L190.268 339.732L186.732 343.268ZM221.5 377H315.5V372H221.5V377ZM223.5 343H318.5V338H223.5V343ZM316.732 342.268L367.732 393.268L371.268 389.732L320.268 338.732L316.732 342.268ZM582.5 338H470.5V343H582.5V338ZM468.732 338.732L417.732 389.732L421.268 393.268L472.268 342.268L468.732 338.732ZM620.5 308H468.5V313H620.5V308ZM470.268 308.732L420.268 258.732L416.732 262.268L466.732 312.268L470.268 308.732ZM421 260.5V170.5H416V260.5H421ZM420.268 168.732L372.268 120.732L368.732 124.268L416.732 172.268L420.268 168.732ZM373 122.5V50.5H368V122.5H373ZM372.268 52.2678L420.268 4.26777L416.732 0.732233L368.732 48.7322L372.268 52.2678ZM495 30.5V123.5H500V30.5H495ZM495.732 121.732L450.732 166.732L454.268 170.268L499.268 125.268L495.732 121.732ZM450 168.5V243.5H455V168.5H450ZM450.732 245.268L482.732 277.268L486.268 273.732L454.268 241.732L450.732 245.268ZM484.5 278H638.5V273H484.5V278ZM395.732 94.2678L422.732 121.268L426.268 117.732L399.268 90.7322L395.732 94.2678ZM408.732 53.2678L452.732 97.2678L456.268 93.7322L412.268 49.7322L408.732 53.2678ZM452 95.5V122.5H457V95.5H452ZM455 14.5V57.5H460V14.5H455ZM533 47.5V143.5H538V47.5H533ZM533.732 141.732L482.732 192.732L486.268 196.268L537.268 145.268L533.732 141.732ZM572 66.5V161.5H577V66.5H572ZM572.732 163.268L597.732 188.268L601.268 184.732L576.268 159.732L572.732 163.268ZM505.5 208H660.5V203H505.5V208ZM663 205.5V155.5H658V205.5H663ZM662.268 153.732L604.268 95.7322L600.732 99.2678L658.732 157.268L662.268 153.732ZM600.732 144.268L628.732 172.268L632.268 168.732L604.268 140.732L600.732 144.268ZM482.732 224.268L500.732 242.268L504.268 238.732L486.268 220.732L482.732 224.268ZM502.5 243H651.5V238H502.5V243Z" fill="#00B9FF"/>
<circle cx="395" cy="326" r="26" fill="white"/>
<path d="M459.029 491C452.626 491 446.286 489.758 440.008 487.274C433.856 484.659 428.52 481.456 424 477.664L434.17 463.151C438.313 466.551 442.393 469.231 446.411 471.192C450.554 473.023 455.012 473.938 459.783 473.938C464.805 473.938 468.508 472.892 470.894 470.8C473.279 468.577 474.472 465.766 474.472 462.367C474.472 460.406 473.907 458.706 472.777 457.268C471.647 455.699 470.141 454.326 468.257 453.15C466.374 451.973 464.24 450.927 461.854 450.012C459.469 448.966 457.083 447.92 454.698 446.874C451.684 445.697 448.608 444.324 445.47 442.755C442.331 441.186 439.506 439.291 436.995 437.068C434.609 434.845 432.6 432.296 430.968 429.419C429.462 426.412 428.708 422.882 428.708 418.829C428.708 410.331 431.722 403.401 437.748 398.041C443.775 392.68 451.998 390 462.419 390C468.822 390 474.598 391.177 479.745 393.53C484.893 395.884 489.35 398.564 493.117 401.571L483.135 415.299C479.871 412.815 476.544 410.854 473.154 409.416C469.89 407.847 466.437 407.062 462.796 407.062C458.15 407.062 454.698 408.108 452.438 410.2C450.303 412.161 449.236 414.645 449.236 417.652C449.236 419.614 449.738 421.313 450.743 422.751C451.873 424.059 453.317 425.236 455.074 426.282C456.832 427.328 458.841 428.308 461.101 429.223C463.486 430.139 465.935 431.054 468.446 431.969C471.584 433.146 474.723 434.518 477.862 436.087C481.001 437.526 483.826 439.356 486.337 441.579C488.974 443.801 491.045 446.547 492.552 449.816C494.184 452.953 495 456.745 495 461.19C495 465.374 494.184 469.296 492.552 472.957C491.045 476.487 488.785 479.625 485.772 482.371C482.759 484.986 478.992 487.078 474.472 488.647C469.952 490.216 464.805 491 459.029 491Z" fill="white"/>
<path d="M386 489V393H405V489H386Z" fill="white"/>
<path d="M310.4 491.4C301.733 491.4 294.733 488.8 289.4 483.6C284.067 478.267 281.4 471.267 281.4 462.6C281.4 457.4 282.467 452.8 284.6 448.8C286.867 444.667 290.333 441.133 295 438.2C299.8 435.267 305.8 432.8 313 430.8C320.333 428.8 329.067 427.267 339.2 426.2C339.067 423.667 338.667 421.267 338 419C337.467 416.6 336.467 414.533 335 412.8C333.667 410.933 331.867 409.533 329.6 408.6C327.333 407.533 324.533 407 321.2 407C316.4 407 311.667 407.933 307 409.8C302.467 411.667 298 413.933 293.6 416.6L285.2 401.2C290.667 397.733 296.8 394.733 303.6 392.2C310.4 389.667 317.733 388.4 325.6 388.4C337.867 388.4 347 392.067 353 399.4C359.133 406.6 362.2 417.067 362.2 430.8V489H343.2L341.6 478.2H340.8C336.4 481.933 331.667 485.067 326.6 487.6C321.667 490.133 316.267 491.4 310.4 491.4ZM317.8 473.4C321.8 473.4 325.4 472.467 328.6 470.6C331.933 468.733 335.467 466.067 339.2 462.6V440.6C332.533 441.4 326.933 442.467 322.4 443.8C317.867 445.133 314.2 446.667 311.4 448.4C308.6 450 306.6 451.867 305.4 454C304.2 456.133 303.6 458.4 303.6 460.8C303.6 465.2 304.933 468.4 307.6 470.4C310.267 472.4 313.667 473.4 317.8 473.4Z" fill="white"/>
</svg>
