<?xml version="1.0" standalone="no"?>
<!DOCTYPE svg PUBLIC "-//W3C//DTD SVG 20010904//EN"
 "http://www.w3.org/TR/2001/REC-SVG-20010904/DTD/svg10.dtd">
<svg version="1.0" xmlns="http://www.w3.org/2000/svg"
 width="647.000000pt" height="647.000000pt" viewBox="0 0 647.000000 647.000000"
 preserveAspectRatio="xMidYMid meet">
<metadata>
Created by potrace 1.11, written by Peter Selinger 2001-2013
</metadata>
<g transform="translate(0.000000,647.000000) scale(0.100000,-0.100000)"
fill="#000000" stroke="none">
<path d="M30 3235 l0 -3185 3200 0 3200 0 0 3185 0 3185 -3200 0 -3200 0 0
-3185z m3898 2444 c1 -8 -83 -122 -188 -254 l-190 -240 0 -350 0 -350 190
-240 190 -240 0 -450 0 -450 189 -240 189 -240 604 -5 c595 -5 603 -5 603 -25
0 -20 -8 -20 -607 -23 l-606 -2 -206 260 -206 260 0 451 0 450 -185 235 -185
234 0 375 0 375 193 245 c105 134 197 243 202 241 6 -1 11 -9 13 -17z m-920
-323 l2 -327 -315 -399 -315 -399 -2 -548 c-3 -479 -5 -548 -18 -548 -13 0
-15 69 -17 555 l-3 555 315 399 315 398 0 318 c0 174 3 320 7 324 24 24 28
-16 31 -328z m261 -458 l0 -793 -313 -395 c-171 -217 -316 -394 -322 -393 -5
1 -10 8 -12 16 -2 8 137 192 308 408 l310 394 0 771 c0 424 3 774 7 777 3 4
10 7 15 7 4 0 8 -357 7 -792z m-541 531 l2 -225 -335 -424 -335 -425 -2 -614
c-2 -481 -6 -615 -15 -619 -10 -3 -13 127 -13 628 l0 631 335 424 335 425 0
216 c0 168 3 215 13 212 9 -4 13 -60 15 -229z m1507 -90 c0 -201 -2 -234 -15
-234 -13 0 -15 33 -18 225 -1 123 0 231 3 238 3 8 11 12 18 9 9 -3 12 -59 12
-238z m-2191 62 c-5 -11 -75 -103 -156 -205 l-148 -186 -189 0 -189 0 -104
-132 c-56 -72 -109 -133 -115 -136 -38 -12 -1 53 102 183 l115 145 189 0 189
0 34 43 c207 265 261 328 271 318 7 -7 7 -17 1 -30z m362 24 c4 -9 -93 -139
-261 -352 l-266 -338 -217 -5 -217 -5 -142 -180 -142 -180 -1 -429 0 -428 95
-122 c88 -112 105 -145 80 -152 -5 -2 -54 53 -107 121 l-98 125 0 455 0 455
153 194 152 195 215 1 215 0 259 330 c143 182 264 330 268 330 5 0 11 -7 14
-15z m2144 -495 l0 -478 -175 -222 -175 -223 0 -367 0 -367 118 -151 117 -151
613 -1 612 0 0 -25 0 -25 -617 0 -618 1 -132 169 -133 168 0 382 0 382 180
228 180 228 0 464 c0 256 3 468 6 471 4 4 11 4 15 1 5 -3 9 -220 9 -484z m300
-184 l0 -493 -206 -262 c-113 -143 -210 -261 -215 -261 -34 0 10 68 191 295
l199 250 1 481 c0 264 3 484 6 487 4 4 11 4 15 1 5 -3 9 -227 9 -498z m-816
236 l176 -222 0 -156 c0 -120 -3 -155 -12 -152 -10 3 -14 43 -16 144 l-3 139
-111 140 c-226 286 -240 305 -234 321 3 9 10 14 15 12 5 -2 89 -103 185 -226z
m1126 -411 l5 -481 98 -126 c89 -113 110 -154 79 -154 -5 0 -54 58 -110 129
l-102 130 0 496 c0 393 3 496 13 493 9 -4 13 -114 17 -487z m-1292 83 c103
-131 126 -174 94 -174 -8 0 -203 241 -225 277 -9 15 -2 43 10 42 4 0 59 -65
121 -145z m1736 -201 l236 -298 -3 -265 -2 -265 -625 0 c-618 0 -625 0 -625
20 0 20 8 20 608 23 l607 2 0 235 0 235 -225 285 c-201 254 -248 325 -216 325
6 0 116 -134 245 -297z m-4714 -494 l0 -600 171 -217 172 -217 101 -5 c93 -5
101 -7 101 -25 0 -19 -8 -20 -105 -23 l-105 -2 -182 231 -183 232 0 607 c0
334 3 610 7 613 3 4 10 7 15 7 4 0 8 -270 8 -601z m710 561 c0 -12 -31 -60
-70 -108 l-70 -87 0 -390 0 -390 150 -190 c139 -175 162 -214 135 -221 -5 -2
-79 85 -162 192 l-153 194 0 415 0 415 75 95 c42 52 80 95 85 95 6 0 10 -9 10
-20z m1420 -85 c0 -14 -385 -508 -401 -513 -5 -2 -12 3 -15 12 -6 16 20 51
284 384 103 130 132 156 132 117z m-1265 -485 c0 -338 -3 -434 -12 -437 -10
-4 -13 88 -13 437 0 349 3 441 13 438 9 -4 12 -100 12 -438z m3726 208 c104
-132 130 -177 104 -184 -15 -4 -235 282 -235 306 0 11 4 20 9 20 5 0 60 -64
122 -142z m-4836 -344 c0 -410 -2 -469 -15 -469 -13 0 -15 59 -18 460 -1 253
0 466 3 473 3 8 11 12 18 9 9 -3 12 -106 12 -473z m2895 -269 l0 -464 -202
-256 -202 -255 -635 2 c-628 3 -636 3 -636 23 0 20 8 20 633 25 l632 5 190
240 189 240 1 446 c0 245 3 449 7 452 3 4 10 7 15 7 4 0 8 -209 8 -465z m969
-135 l71 -90 593 -2 c584 -3 592 -3 592 -23 0 -20 -8 -20 -597 -23 l-597 -2
-76 94 c-67 83 -92 136 -66 136 5 0 41 -40 80 -90z m-1239 59 c0 -12 -95 -141
-222 -304 l-223 -284 -567 0 -568 -1 0 25 0 25 562 2 562 3 219 278 c121 152
223 277 228 277 5 0 9 -9 9 -21z m513 -783 c47 -19 80 -53 111 -113 22 -44 26
-66 26 -133 0 -67 -4 -89 -26 -132 -30 -59 -47 -78 -94 -107 -59 -35 -125 -25
-186 29 -65 58 -96 170 -75 271 16 81 38 120 86 156 58 44 103 53 158 29z
m-449 -626 c184 -233 235 -311 194 -298 -7 3 -102 118 -211 256 l-199 252
-379 0 -379 0 0 25 0 25 384 0 384 0 206 -260z m1886 235 l0 -25 -447 0 -448
-1 -200 -254 c-109 -140 -203 -255 -207 -255 -35 0 -1 53 189 294 l208 265
453 1 452 0 0 -25z m-2986 -150 l129 -165 376 -2 c368 -3 376 -3 376 -23 0
-20 -8 -20 -381 -23 l-381 -2 -124 157 c-68 86 -130 165 -137 175 -14 19 -10
48 5 48 4 0 66 -74 137 -165z m1072 -384 c49 -27 83 -69 112 -138 21 -50 22
-63 22 -432 l0 -381 -65 0 -64 0 -3 63 c-3 56 -4 60 -15 36 -15 -34 -67 -77
-122 -102 -58 -25 -149 -20 -211 12 -50 26 -61 37 -95 103 -22 41 -25 60 -25
149 0 88 3 109 25 154 45 96 112 136 282 165 176 31 163 25 163 66 0 92 -33
159 -94 191 -56 29 -182 -1 -246 -59 -63 -57 -60 -59 -60 33 l0 84 52 29 c75
42 132 56 223 53 62 -3 90 -9 121 -26z m1122 3 l42 -19 0 -77 c0 -82 -6 -91
-41 -59 -25 23 -110 51 -154 51 -105 0 -168 -79 -143 -177 13 -53 38 -75 153
-133 178 -90 242 -202 203 -358 -19 -80 -59 -128 -141 -170 -47 -24 -62 -27
-157 -26 -87 0 -113 4 -152 23 l-48 22 0 85 c0 92 -2 90 55 48 69 -51 172 -67
244 -38 51 20 87 85 76 136 -16 70 -47 100 -163 159 -159 81 -212 151 -212
279 0 134 66 225 192 266 58 19 190 12 246 -12z m-628 -474 l0 -480 -70 0 -70
0 0 480 0 480 70 0 70 0 0 -480z"/>
<path d="M3185 1276 c-110 -23 -161 -42 -184 -69 -6 -8 -17 -40 -23 -71 -40
-189 133 -289 259 -149 27 30 48 66 58 99 15 53 21 215 8 213 -5 0 -58 -11
-118 -23z"/>
</g>
</svg>
